<?xml version="1.0" encoding="UTF-8" standalone="no"?>
<!-- Created with Inkscape (http://www.inkscape.org/) -->

<svg
   version="1.1"
   id="svg1"
   width="942.29456"
   height="630.76282"
   viewBox="0 0 942.29452 630.76282"
   sodipodi:docname="Diagrama de bloques de robot industrial 2.svg"
   inkscape:version="1.4 (86a8ad7, 2024-10-11)"
   inkscape:export-filename="Diagrama de bloques de robot industrial 2.pdf"
   inkscape:export-xdpi="96"
   inkscape:export-ydpi="96"
   xmlns:inkscape="http://www.inkscape.org/namespaces/inkscape"
   xmlns:sodipodi="http://sodipodi.sourceforge.net/DTD/sodipodi-0.dtd"
   xmlns="http://www.w3.org/2000/svg"
   xmlns:svg="http://www.w3.org/2000/svg">
  <defs
     id="defs1">
    <marker
       style="overflow:visible"
       id="Triangle"
       refX="0"
       refY="0"
       orient="auto-start-reverse"
       inkscape:stockid="Triangle arrow"
       markerWidth="0.60000002"
       markerHeight="0.60000002"
       viewBox="0 0 1 1"
       inkscape:isstock="true"
       inkscape:collect="always"
       preserveAspectRatio="xMidYMid">
      <path
         transform="scale(0.5)"
         style="fill:context-stroke;fill-rule:evenodd;stroke:context-stroke;stroke-width:1pt"
         d="M 5.77,0 -2.88,5 V -5 Z"
         id="path135" />
    </marker>
  </defs>
  <sodipodi:namedview
     id="namedview1"
     pagecolor="#ffffff"
     bordercolor="#999999"
     borderopacity="1"
     inkscape:showpageshadow="2"
     inkscape:pageopacity="0"
     inkscape:pagecheckerboard="0"
     inkscape:deskcolor="#d1d1d1"
     inkscape:zoom="0.88586224"
     inkscape:cx="452.66632"
     inkscape:cy="330.18678"
     inkscape:window-width="1920"
     inkscape:window-height="991"
     inkscape:window-x="-9"
     inkscape:window-y="-9"
     inkscape:window-maximized="1"
     inkscape:current-layer="g1">
    <inkscape:page
       x="0"
       y="0"
       inkscape:label="1"
       id="page1"
       width="942.29449"
       height="630.76282"
       margin="0"
       bleed="0" />
  </sodipodi:namedview>
  <g
     id="g1"
     inkscape:groupmode="layer"
     inkscape:label="1">
    <path
       id="path1"
       d="m 194.63976,452.95781 h 92.74491 v 53.54667 h -92.74491 z"
       style="fill:none;stroke:#000000;stroke-width:2.00094;stroke-linecap:butt;stroke-linejoin:miter;stroke-miterlimit:4;stroke-dasharray:none;stroke-opacity:1" />
    <text
       id="text1"
       xml:space="preserve"
       transform="scale(0.9999117,1.0000883)"
       x="201.65181"
       y="483.84583"
       style="font-size:16.0014px;stroke-width:1.33345"><tspan
         id="tspan1"
         style="font-variant:normal;font-weight:normal;font-size:16.0075px;font-family:'Times New Roman';writing-mode:lr-tb;fill:#000000;fill-opacity:1;fill-rule:nonzero;stroke:none;stroke-width:1.33345"
         x="201.65181"
         y="483.84583">Controlador</tspan><tspan
         id="tspan2"
         style="font-variant:normal;font-weight:normal;font-size:16.0075px;font-family:'Times New Roman';writing-mode:lr-tb;fill:#000000;fill-opacity:1;fill-rule:nonzero;stroke:none;stroke-width:1.33345"
         x="150.13867"
         y="472.40802">Error</tspan></text>
    <path
       id="path2"
       d="m 287.29002,481.62448 h 177.5259"
       style="fill:none;stroke:#000000;stroke-width:3.78132;stroke-linecap:butt;stroke-linejoin:miter;stroke-miterlimit:4;stroke-dasharray:none;stroke-opacity:1" />
    <path
       id="path3"
       d="m 470.26962,481.62448 -8.17721,4.724 v -9.45333 z"
       style="fill:#000000;fill-opacity:1;fill-rule:evenodd;stroke:#000000;stroke-width:1.26044;stroke-linecap:butt;stroke-linejoin:miter;stroke-miterlimit:4;stroke-dasharray:none;stroke-opacity:1" />
    <path
       id="path4"
       d="m 148.41061,482.40981 c 0,11.05334 -8.95841,20.01067 -20.01112,20.01067 -11.04605,0 -20.00446,-8.95733 -20.00446,-20.01067 0,-11.052 8.95841,-20.00933 20.00446,-20.00933 11.05271,0 20.01112,8.95733 20.01112,20.00933 z"
       style="fill:#ffffff;fill-opacity:1;fill-rule:nonzero;stroke:#000000;stroke-width:2.00094;stroke-linecap:butt;stroke-linejoin:miter;stroke-miterlimit:4;stroke-dasharray:none;stroke-opacity:1" />
    <path
       id="path5"
       d="m 114.3953,468.40581 28.00971,28.01467"
       style="fill:#ffffff;fill-opacity:1;fill-rule:nonzero;stroke:#000000;stroke-width:2.00094;stroke-linecap:butt;stroke-linejoin:miter;stroke-miterlimit:4;stroke-dasharray:none;stroke-opacity:1" />
    <path
       id="path6"
       d="m 114.3953,496.42048 28.00971,-28.01467"
       style="fill:#ffffff;fill-opacity:1;fill-rule:nonzero;stroke:#000000;stroke-width:2.00094;stroke-linecap:butt;stroke-linejoin:miter;stroke-miterlimit:4;stroke-dasharray:none;stroke-opacity:1" />
    <text
       id="text6"
       xml:space="preserve"
       transform="scale(0.9999117,1.0000883)"
       x="110.40273"
       y="486.94452"
       style="font-size:16.0014px;stroke-width:1.33345"><tspan
         id="tspan6"
         style="font-variant:normal;font-weight:normal;font-size:16.0075px;font-family:'Cambria Math';writing-mode:lr-tb;fill:#000000;fill-opacity:1;fill-rule:nonzero;stroke:none;stroke-width:1.33345"
         x="110.40273"
         y="486.94452">+</tspan><tspan
         id="tspan7"
         style="font-variant:normal;font-weight:normal;font-size:16.0075px;font-family:'Cambria Math';writing-mode:lr-tb;fill:#000000;fill-opacity:1;fill-rule:nonzero;stroke:none;stroke-width:1.33345"
         x="124.41117"
         y="499.44662">–</tspan></text>
    <path
       id="path7"
       d="M 148.53059,481.62448 H 186.3319"
       style="fill:none;stroke:#000000;stroke-width:3.78132;stroke-linecap:butt;stroke-linejoin:miter;stroke-miterlimit:4;stroke-dasharray:none;stroke-opacity:1" />
    <path
       id="path8"
       d="m 191.7856,481.62448 -8.17722,4.724 v -9.45333 z"
       style="fill:#000000;fill-opacity:1;fill-rule:evenodd;stroke:#000000;stroke-width:1.26044;stroke-linecap:butt;stroke-linejoin:miter;stroke-miterlimit:4;stroke-dasharray:none;stroke-opacity:1" />
    <path
       id="path9"
       d="m 647.53557,479.90981 h 19.68185"
       style="fill:none;stroke:#000000;stroke-width:3.78132;stroke-linecap:butt;stroke-linejoin:miter;stroke-miterlimit:4;stroke-dasharray:none;stroke-opacity:1" />
    <path
       id="path10"
       d="m 672.67112,479.90981 -8.17722,4.724 v -9.452 z"
       style="fill:#000000;fill-opacity:1;fill-rule:evenodd;stroke:#000000;stroke-width:1.26044;stroke-linecap:butt;stroke-linejoin:miter;stroke-miterlimit:4;stroke-dasharray:none;stroke-opacity:1" />
    <path
       id="path11"
       d="M 581.71789,480.84848 H 601.0398"
       style="fill:none;stroke:#000000;stroke-width:3.78132;stroke-linecap:butt;stroke-linejoin:miter;stroke-miterlimit:4;stroke-dasharray:none;stroke-opacity:1" />
    <path
       id="path12"
       d="m 606.4935,480.84848 -8.17721,4.728 v -9.452 z"
       style="fill:#000000;fill-opacity:1;fill-rule:evenodd;stroke:#000000;stroke-width:1.26044;stroke-linecap:butt;stroke-linejoin:miter;stroke-miterlimit:4;stroke-dasharray:none;stroke-opacity:1" />
    <path
       id="path13"
       d="m 711.24829,480.94181 h 96.47892"
       style="fill:none;stroke:#000000;stroke-width:3.78132;stroke-linecap:butt;stroke-linejoin:miter;stroke-miterlimit:4;stroke-dasharray:none;stroke-opacity:1" />
    <path
       id="path15"
       d="m 674.63344,528.40048 h 36.83348 v 24.85466 h -36.83348 z"
       style="fill:none;stroke:#000000;stroke-width:2.00094;stroke-linecap:butt;stroke-linejoin:miter;stroke-miterlimit:4;stroke-dasharray:none;stroke-opacity:1" />
    <text
       id="text15"
       xml:space="preserve"
       transform="scale(0.9999117,1.0000883)"
       x="687.91943"
       y="545.88098"
       style="font-size:16.0014px;stroke-width:1.33345"><tspan
         id="tspan15"
         style="font-variant:normal;font-weight:normal;font-size:16.0075px;font-family:'Cambria Math';writing-mode:lr-tb;fill:#000000;fill-opacity:1;fill-rule:nonzero;stroke:none;stroke-width:1.33345"
         x="687.91943"
         y="545.88098">A</tspan></text>
    <path
       id="path16"
       d="m 561.93606,471.71781 h 19.12995 v 18.708 h -19.12995 z"
       style="fill:none;stroke:#000000;stroke-width:2.00094;stroke-linecap:butt;stroke-linejoin:miter;stroke-miterlimit:4;stroke-dasharray:none;stroke-opacity:1" />
    <text
       id="text16"
       xml:space="preserve"
       transform="scale(0.9999117,1.0000883)"
       x="567.26251"
       y="485.94901"
       style="font-size:16.0014px;stroke-width:1.33345"><tspan
         id="tspan16"
         style="font-variant:normal;font-weight:normal;font-size:16.0075px;font-family:'Cambria Math';writing-mode:lr-tb;fill:#000000;fill-opacity:1;fill-rule:nonzero;stroke:none;stroke-width:1.33345"
         x="567.26251"
         y="485.94901">B</tspan></text>
    <path
       id="path17"
       d="m 647.64489,480.94181 c 0,-11.052 -8.95309,-20.016 -20.0058,-20.016 -11.05137,0 -20.00979,8.964 -20.00979,20.016 0,11.052 8.95842,20.01067 20.00979,20.01067 11.05271,0 20.0058,-8.95867 20.0058,-20.01067 z"
       style="fill:#ffffff;fill-opacity:1;fill-rule:nonzero;stroke:#000000;stroke-width:2.00094;stroke-linecap:butt;stroke-linejoin:miter;stroke-miterlimit:4;stroke-dasharray:none;stroke-opacity:1" />
    <path
       id="path18"
       d="m 613.63357,494.94715 28.01104,-28.016"
       style="fill:#ffffff;fill-opacity:1;fill-rule:nonzero;stroke:#000000;stroke-width:2.00094;stroke-linecap:butt;stroke-linejoin:miter;stroke-miterlimit:4;stroke-dasharray:none;stroke-opacity:1" />
    <path
       id="path19"
       d="m 613.63357,466.93115 28.01104,28.016"
       style="fill:#ffffff;fill-opacity:1;fill-rule:nonzero;stroke:#000000;stroke-width:2.00094;stroke-linecap:butt;stroke-linejoin:miter;stroke-miterlimit:4;stroke-dasharray:none;stroke-opacity:1" />
    <text
       id="text19"
       xml:space="preserve"
       transform="scale(0.9999117,-1.0000883)"
       x="609.68463"
       y="-476.32074"
       style="font-size:16.0014px;stroke-width:1.33345"><tspan
         id="tspan19"
         style="font-variant:normal;font-weight:normal;font-size:16.0075px;font-family:'Cambria Math';writing-mode:lr-tb;fill:#000000;fill-opacity:1;fill-rule:nonzero;stroke:none;stroke-width:1.33345"
         x="609.68463"
         y="-476.32074">+</tspan><tspan
         id="tspan20"
         style="font-variant:normal;font-weight:normal;font-size:16.0075px;font-family:'Cambria Math';writing-mode:lr-tb;fill:#000000;fill-opacity:1;fill-rule:nonzero;stroke:none;stroke-width:1.33345"
         x="621.64905"
         y="-487.83008">+</tspan></text>
    <path
       id="path20"
       d="m 674.31616,541.17648 h -47.12499 v -32.636"
       style="fill:none;stroke:#000000;stroke-width:3.78132;stroke-linecap:butt;stroke-linejoin:miter;stroke-miterlimit:4;stroke-dasharray:none;stroke-opacity:1" />
    <path
       id="path21"
       d="m 627.19117,503.08181 4.7245,8.17733 h -9.45299 z"
       style="fill:#000000;fill-opacity:1;fill-rule:evenodd;stroke:#000000;stroke-width:1.26044;stroke-linecap:butt;stroke-linejoin:miter;stroke-miterlimit:4;stroke-dasharray:none;stroke-opacity:1" />
    <path
       id="path22"
       d="m 741.56159,481.54581 v 59.35467 h -23.81312"
       style="fill:none;stroke:#000000;stroke-width:3.78132;stroke-linecap:butt;stroke-linejoin:miter;stroke-miterlimit:4;stroke-dasharray:none;stroke-opacity:1" />
    <path
       id="path23"
       d="m 712.29611,540.90048 8.17588,-4.724 v 9.45333 z"
       style="fill:#000000;fill-opacity:1;fill-rule:evenodd;stroke:#000000;stroke-width:1.26044;stroke-linecap:butt;stroke-linejoin:miter;stroke-miterlimit:4;stroke-dasharray:none;stroke-opacity:1" />
    <text
       id="text23"
       xml:space="preserve"
       transform="scale(0.99991169,1.0000883)"
       x="137.86678"
       y="44.59631"
       style="font-size:16.0014px;stroke-width:1.33345"><tspan
         id="tspan23"
         style="font-variant:normal;font-weight:normal;font-size:37.351px;font-family:'Cambria Math';writing-mode:lr-tb;fill:#000000;fill-opacity:1;fill-rule:nonzero;stroke:none;stroke-width:1.33345"
         x="137.86678"
         dx="0 0 0 0 0 -0.63496828 0 0 0 0 0 0 0 0 0 0 0 -0.56026614 0 0 0 0 0 0 0 0 0 -0.52291507"
         y="44.59631">Diagrama de control de un robot industrial</tspan></text>
    <path
       id="path47"
       d="M 807.72721,480.94181 V 600.38317 H 128.27551 V 510.58714"
       style="fill:none;stroke:#000000;stroke-width:3.78132;stroke-linecap:butt;stroke-linejoin:miter;stroke-miterlimit:4;stroke-dasharray:none;stroke-opacity:1"
       sodipodi:nodetypes="cccc" />
    <path
       id="path48"
       d="m 128.27551,505.13381 4.7285,8.17733 h -9.453 z"
       style="fill:#000000;fill-opacity:1;fill-rule:evenodd;stroke:#000000;stroke-width:1.26044;stroke-linecap:butt;stroke-linejoin:miter;stroke-miterlimit:4;stroke-dasharray:none;stroke-opacity:1" />
    <path
       id="path65"
       d="m 457.366,141.16 h 69.575 v 40.16 h -69.575 z"
       style="fill:none;stroke:#000000;stroke-width:1.50084;stroke-linecap:butt;stroke-linejoin:miter;stroke-miterlimit:4;stroke-dasharray:none;stroke-opacity:1"
       transform="scale(1.3330973,1.3333333)" />
    <text
       id="text66"
       xml:space="preserve"
       transform="matrix(1.3333333,0,0,1.3335688,619.17843,210.55377)"><tspan
         id="tspan66"
         style="font-variant:normal;font-weight:normal;font-size:12.0046px;font-family:'Times New Roman';writing-mode:lr-tb;fill:#000000;fill-opacity:1;fill-rule:nonzero;stroke:none"
         x="0"
         y="0">Cinemática</tspan><tspan
         id="tspan67"
         style="font-variant:normal;font-weight:normal;font-size:12.0046px;font-family:'Cambria Math';writing-mode:lr-tb;fill:#000000;fill-opacity:1;fill-rule:nonzero;stroke:none"
         x="54.665615"
         y="0"> </tspan><tspan
         id="tspan68"
         style="font-variant:normal;font-weight:normal;font-size:12.0046px;font-family:'Times New Roman';writing-mode:lr-tb;fill:#000000;fill-opacity:1;fill-rule:nonzero;stroke:none"
         x="9.9999533"
         y="15.188402">inversa</tspan></text>
    <path
       id="path68"
       d="m 170.085,142.41 h 81.561 v 40.16 h -81.561 z"
       style="fill:none;stroke:#000000;stroke-width:1.50084;stroke-linecap:butt;stroke-linejoin:miter;stroke-miterlimit:4;stroke-dasharray:none;stroke-opacity:1"
       transform="scale(1.3330973,1.3333333)" />
    <text
       id="text68"
       xml:space="preserve"
       transform="matrix(1.3333333,0,0,1.3335688,238.68948,210.57148)"><tspan
         id="tspan69"
         style="font-variant:normal;font-weight:normal;font-size:12.0046px;font-family:'Times New Roman';writing-mode:lr-tb;fill:#000000;fill-opacity:1;fill-rule:nonzero;stroke:none"
         x="0"
         y="0">Planificación</tspan><tspan
         id="tspan70"
         style="font-variant:normal;font-weight:normal;font-size:12.0046px;font-family:'Cambria Math';writing-mode:lr-tb;fill:#000000;fill-opacity:1;fill-rule:nonzero;stroke:none"
         x="63.334972"
         y="0"> </tspan><tspan
         id="tspan71"
         style="font-variant:normal;font-weight:normal;font-size:12.0046px;font-family:'Times New Roman';writing-mode:lr-tb;fill:#000000;fill-opacity:1;fill-rule:nonzero;stroke:none"
         x="-1.1576725"
         y="15.188402">de trayectoria</tspan><tspan
         id="tspan72"
         style="font-style:italic;font-variant:normal;font-weight:normal;font-size:12.0046px;font-family:'Times New Roman';writing-mode:lr-tb;fill:#000000;fill-opacity:1;fill-rule:nonzero;stroke:none"
         x="85.015045"
         y="16.191151">η</tspan><tspan
         id="tspan73"
         style="font-variant:normal;font-weight:normal;font-size:12.0046px;font-family:'Times New Roman';writing-mode:lr-tb;fill:#000000;fill-opacity:1;fill-rule:nonzero;stroke:none"
         x="90.970467"
         y="16.191151"> || </tspan><tspan
         id="tspan74"
         style="font-style:italic;font-variant:normal;font-weight:normal;font-size:12.0046px;font-family:'Times New Roman';writing-mode:lr-tb;fill:#000000;fill-opacity:1;fill-rule:nonzero;stroke:none"
         x="101.77932"
         y="16.191151">q</tspan><tspan
         id="tspan75"
         style="font-variant:normal;font-weight:normal;font-size:12.0046px;font-family:'Times New Roman';writing-mode:lr-tb;fill:#000000;fill-opacity:1;fill-rule:nonzero;stroke:none"
         x="113.1357"
         y="16.191151">(ángulos de euler || cuaternión)</tspan><tspan
         id="tspan76"
         style="font-style:italic;font-variant:normal;font-weight:normal;font-size:12.0046px;font-family:'Times New Roman';writing-mode:lr-tb;fill:#000000;fill-opacity:1;fill-rule:nonzero;stroke:none"
         x="92.195549"
         y="27.715679">ω</tspan><tspan
         id="tspan77"
         style="font-variant:normal;font-weight:normal;font-size:12.0046px;font-family:'Times New Roman';writing-mode:lr-tb;fill:#000000;fill-opacity:1;fill-rule:nonzero;stroke:none"
         x="113.14429"
         y="27.715679">(velocidad angular)</tspan><tspan
         id="tspan78"
         style="font-style:italic;font-variant:normal;font-weight:normal;font-size:12.0046px;font-family:'Times New Roman';writing-mode:lr-tb;fill:#000000;fill-opacity:1;fill-rule:nonzero;stroke:none"
         x="93.066002"
         y="39.240292">α</tspan></text>
    <text
       id="text78"
       xml:space="preserve"
       transform="matrix(1.3333333,0,0,1.3335688,389.54119,262.9011)"><tspan
         id="tspan79"
         style="font-variant:normal;font-weight:normal;font-size:12.0046px;font-family:'Times New Roman';writing-mode:lr-tb;fill:#d40000;fill-opacity:1;fill-rule:nonzero;stroke:none"
         x="0"
         y="0">(aceleración angular)</tspan></text>
    <text
       id="text79"
       xml:space="preserve"
       transform="matrix(1.3333333,0,0,1.3335688,362.9924,210.62513)"><tspan
         id="tspan80"
         style="font-style:italic;font-variant:normal;font-weight:normal;font-size:12.0046px;font-family:'Times New Roman';writing-mode:lr-tb;fill:#000000;fill-opacity:1;fill-rule:nonzero;stroke:none"
         x="0"
         y="0">a</tspan><tspan
         id="tspan81"
         style="font-variant:normal;font-weight:normal;font-size:12.0046px;font-family:'Times New Roman';writing-mode:lr-tb;fill:#000000;fill-opacity:1;fill-rule:nonzero;stroke:none"
         x="19.915682"
         y="0">(aceleración linear)</tspan><tspan
         id="tspan82"
         style="font-style:italic;font-variant:normal;font-weight:normal;font-size:12.0046px;font-family:'Times New Roman';writing-mode:lr-tb;fill:#000000;fill-opacity:1;fill-rule:nonzero;stroke:none"
         x="0.54513264"
         y="-11.536293">v</tspan><tspan
         id="tspan83"
         style="font-variant:normal;font-weight:normal;font-size:12.0046px;font-family:'Times New Roman';writing-mode:lr-tb;fill:#000000;fill-opacity:1;fill-rule:nonzero;stroke:none"
         x="19.906773"
         y="-11.536293">(velocidad linear)</tspan><tspan
         id="tspan84"
         style="font-style:italic;font-variant:normal;font-weight:normal;font-size:12.0046px;font-family:'Times New Roman';writing-mode:lr-tb;fill:#000000;fill-opacity:1;fill-rule:nonzero;stroke:none"
         x="0.42790011"
         y="-23.072586">p</tspan><tspan
         id="tspan85"
         style="font-variant:normal;font-weight:normal;font-size:12.0046px;font-family:'Times New Roman';writing-mode:lr-tb;fill:#000000;fill-opacity:1;fill-rule:nonzero;stroke:none"
         x="19.911415"
         y="-23.072586">(posición)</tspan></text>
    <text
       id="text85"
       xml:space="preserve"
       transform="matrix(1.3333333,0,0,1.3335689,375.87475,155.74817)"><tspan
         id="tspan86"
         style="font-variant:normal;font-weight:700;font-size:14.0054px;font-family:'Times New Roman';writing-mode:lr-tb;fill:#000000;fill-opacity:1;fill-rule:nonzero;stroke:none"
         x="0"
         dx="0 -1.2884983 0 0 0 -0.25209749 0 0 0 0 0 0 0 0 0 0 0 0 0 -0.25209749"
         y="0">Valores del efector final</tspan></text>
    <path
       id="path86"
       d="m 260.273,100.992 h 184.29 v 104.531 h -184.29 z"
       style="fill:none;stroke:#000000;stroke-width:0.567249;stroke-linecap:round;stroke-linejoin:round;stroke-miterlimit:4;stroke-dasharray:6.80698, 6.80698;stroke-dashoffset:0;stroke-opacity:1"
       transform="scale(1.3330973,1.3333333)" />
    <path
       id="path87"
       d="M 251.439,162.488 H 451.693"
       style="fill:none;stroke:#000000;stroke-width:2.83624;stroke-linecap:butt;stroke-linejoin:miter;stroke-miterlimit:4;stroke-dasharray:none;stroke-opacity:1"
       transform="scale(1.3330973,1.3333333)" />
    <path
       id="path88"
       d="m 455.784,162.488 -6.13,3.547 v -7.09 z"
       style="fill:#000000;fill-opacity:1;fill-rule:evenodd;stroke:#000000;stroke-width:0.945414;stroke-linecap:butt;stroke-linejoin:miter;stroke-miterlimit:4;stroke-dasharray:none;stroke-opacity:1"
       transform="scale(1.3330973,1.3333333)" />
    <text
       id="text88"
       xml:space="preserve"
       transform="matrix(1.3333333,0,0,1.3335689,48.258725,99.681856)"><tspan
         id="tspan88"
         style="font-variant:normal;font-weight:700;font-size:14.0054px;font-family:'Times New Roman';writing-mode:lr-tb;fill:#000000;fill-opacity:1;fill-rule:nonzero;stroke:none"
         x="0"
         dx="0 -1.2884983 0 0 0 -0.25209749 0 0 0 0 0 0 0 0 0 0 0 0 0 -0.25209749"
         y="0">Valores del efector </tspan><tspan
         id="tspan89"
         style="font-variant:normal;font-weight:700;font-size:14.0054px;font-family:'Times New Roman';writing-mode:lr-tb;fill:#000000;fill-opacity:1;fill-rule:nonzero;stroke:none"
         x="0.35902604"
         dx="0 0 0 0 0 0 0 0 0 0 0 0 0 0 0 0 0 0 0 -0.25209749"
         y="17.779791">final definidos por </tspan><tspan
         id="tspan90"
         style="font-variant:normal;font-weight:700;font-size:14.0054px;font-family:'Times New Roman';writing-mode:lr-tb;fill:#000000;fill-opacity:1;fill-rule:nonzero;stroke:none"
         x="32.527718"
         y="35.559582">usuario</tspan></text>
    <path
       id="path90"
       d="m 137.2,162.488 h 26.884"
       style="fill:none;stroke:#000000;stroke-width:2.83624;stroke-linecap:butt;stroke-linejoin:miter;stroke-miterlimit:4;stroke-dasharray:none;stroke-opacity:1"
       transform="scale(1.3330973,1.3333333)" />
    <path
       id="path91"
       d="m 168.178,162.488 -6.134,3.547 v -7.09 z"
       style="fill:#000000;fill-opacity:1;fill-rule:evenodd;stroke:#000000;stroke-width:0.945414;stroke-linecap:butt;stroke-linejoin:miter;stroke-miterlimit:4;stroke-dasharray:none;stroke-opacity:1"
       transform="scale(1.3330973,1.3333333)" />
    <text
       id="text91"
       xml:space="preserve"
       transform="matrix(1.3333333,0,0,1.3335688,83.153464,165.60919)"><tspan
         id="tspan91"
         style="font-variant:normal;font-weight:normal;font-size:12.0046px;font-family:'Times New Roman';writing-mode:lr-tb;fill:#000000;fill-opacity:1;fill-rule:nonzero;stroke:none"
         x="0"
         y="0">Puntos</tspan><tspan
         id="tspan92"
         style="font-variant:normal;font-weight:normal;font-size:12.0046px;font-family:'Cambria Math';writing-mode:lr-tb;fill:#000000;fill-opacity:1;fill-rule:nonzero;stroke:none"
         x="32.690342"
         y="0"> </tspan><tspan
         id="tspan93"
         style="font-variant:normal;font-weight:normal;font-size:12.0046px;font-family:'Times New Roman';writing-mode:lr-tb;fill:#000000;fill-opacity:1;fill-rule:nonzero;stroke:none"
         x="-17.649387"
         y="12.187244">(coordenadas)</tspan><tspan
         id="tspan94"
         style="font-variant:normal;font-weight:normal;font-size:12.0046px;font-family:'Times New Roman';writing-mode:lr-tb;fill:#000000;fill-opacity:1;fill-rule:nonzero;stroke:none"
         x="1.8170928"
         dx="0 -1.3325139"
         y="29.299376">Velocidad</tspan><tspan
         id="tspan95"
         style="font-variant:normal;font-weight:normal;font-size:12.0046px;font-family:'Cambria Math';writing-mode:lr-tb;fill:#000000;fill-opacity:1;fill-rule:nonzero;stroke:none"
         x="49.816105"
         y="29.299376"> </tspan><tspan
         id="tspan96"
         style="font-variant:normal;font-weight:normal;font-size:12.0046px;font-family:'Times New Roman';writing-mode:lr-tb;fill:#000000;fill-opacity:1;fill-rule:nonzero;stroke:none"
         x="6.4829564"
         y="41.486622">máxima</tspan><tspan
         id="tspan97"
         style="font-variant:normal;font-weight:normal;font-size:12.0046px;font-family:'Times New Roman';writing-mode:lr-tb;fill:#000000;fill-opacity:1;fill-rule:nonzero;stroke:none"
         x="-8.1359463"
         y="56.142727">Aceleración</tspan><tspan
         id="tspan98"
         style="font-variant:normal;font-weight:normal;font-size:12.0046px;font-family:'Cambria Math';writing-mode:lr-tb;fill:#000000;fill-opacity:1;fill-rule:nonzero;stroke:none"
         x="49.847355"
         y="56.142727"> </tspan><tspan
         id="tspan99"
         style="font-variant:normal;font-weight:normal;font-size:12.0046px;font-family:'Times New Roman';writing-mode:lr-tb;fill:#000000;fill-opacity:1;fill-rule:nonzero;stroke:none"
         x="1.5210947"
         y="68.329979">máxima</tspan><tspan
         id="tspan100"
         style="font-variant:normal;font-weight:normal;font-size:12.0046px;font-family:'Times New Roman';writing-mode:lr-tb;fill:#000000;fill-opacity:1;fill-rule:nonzero;stroke:none"
         x="5.9202514"
         dx="0 -0.42016205"
         y="82.986084">Tipo de</tspan><tspan
         id="tspan101"
         style="font-variant:normal;font-weight:normal;font-size:12.0046px;font-family:'Cambria Math';writing-mode:lr-tb;fill:#000000;fill-opacity:1;fill-rule:nonzero;stroke:none"
         x="42.504597"
         y="82.986084"> </tspan><tspan
         id="tspan102"
         style="font-variant:normal;font-weight:normal;font-size:12.0046px;font-family:'Times New Roman';writing-mode:lr-tb;fill:#000000;fill-opacity:1;fill-rule:nonzero;stroke:none"
         x="-1.4478304"
         y="95.17334">trayectoria</tspan></text>
    <path
       id="path102"
       d="m 134.078,123.461 h 3.449 v 91.324 h -3.449 z"
       style="fill:#000000;fill-opacity:1;fill-rule:nonzero;stroke:none"
       transform="scale(1.3333333)" />
    <path
       id="path103"
       d="m 115.368,127.609 h 13.534"
       style="fill:none;stroke:#000000;stroke-width:2.83624;stroke-linecap:butt;stroke-linejoin:miter;stroke-miterlimit:4;stroke-dasharray:none;stroke-opacity:1"
       transform="scale(1.3330973,1.3333333)" />
    <path
       id="path104"
       d="m 132.992,127.609 -6.134,3.547 v -7.09 z"
       style="fill:#000000;fill-opacity:1;fill-rule:evenodd;stroke:#000000;stroke-width:0.945414;stroke-linecap:butt;stroke-linejoin:miter;stroke-miterlimit:4;stroke-dasharray:none;stroke-opacity:1"
       transform="scale(1.3330973,1.3333333)" />
    <path
       id="path105"
       d="m 115.095,155.492 h 13.533"
       style="fill:none;stroke:#000000;stroke-width:2.83624;stroke-linecap:butt;stroke-linejoin:miter;stroke-miterlimit:4;stroke-dasharray:none;stroke-opacity:1"
       transform="scale(1.3330973,1.3333333)" />
    <path
       id="path106"
       d="m 132.719,155.492 -6.13,3.547 v -7.09 z"
       style="fill:#000000;fill-opacity:1;fill-rule:evenodd;stroke:#000000;stroke-width:0.945414;stroke-linecap:butt;stroke-linejoin:miter;stroke-miterlimit:4;stroke-dasharray:none;stroke-opacity:1"
       transform="scale(1.3330973,1.3333333)" />
    <path
       id="path107"
       d="m 115.095,182.34 h 13.533"
       style="fill:none;stroke:#000000;stroke-width:2.83624;stroke-linecap:butt;stroke-linejoin:miter;stroke-miterlimit:4;stroke-dasharray:none;stroke-opacity:1"
       transform="scale(1.3330973,1.3333333)" />
    <path
       id="path108"
       d="m 132.719,182.34 -6.13,3.547 v -7.09 z"
       style="fill:#000000;fill-opacity:1;fill-rule:evenodd;stroke:#000000;stroke-width:0.945414;stroke-linecap:butt;stroke-linejoin:miter;stroke-miterlimit:4;stroke-dasharray:none;stroke-opacity:1"
       transform="scale(1.3330973,1.3333333)" />
    <path
       id="path109"
       d="m 115.095,210.43 h 13.533"
       style="fill:none;stroke:#000000;stroke-width:2.83624;stroke-linecap:butt;stroke-linejoin:miter;stroke-miterlimit:4;stroke-dasharray:none;stroke-opacity:1"
       transform="scale(1.3330973,1.3333333)" />
    <path
       id="path110"
       d="m 132.719,210.43 -6.13,3.547 v -7.094 z"
       style="fill:#000000;fill-opacity:1;fill-rule:evenodd;stroke:#000000;stroke-width:0.945414;stroke-linecap:butt;stroke-linejoin:miter;stroke-miterlimit:4;stroke-dasharray:none;stroke-opacity:1"
       transform="scale(1.3330973,1.3333333)" />
    <path
       id="path111"
       d="m 29.693,60.082 h 119.56 V 230.496 H 29.693 Z"
       style="fill:none;stroke:#000000;stroke-width:0.567249;stroke-linecap:round;stroke-linejoin:round;stroke-miterlimit:4;stroke-dasharray:6.80698, 6.80698;stroke-dashoffset:0;stroke-opacity:1"
       transform="scale(1.3330973,1.3333333)" />
    <text
       id="text111"
       xml:space="preserve"
       transform="matrix(1.3333333,0,0,1.3335689,731.48328,136.00384)"><tspan
         id="tspan111"
         style="font-variant:normal;font-weight:700;font-size:14.0054px;font-family:'Times New Roman';writing-mode:lr-tb;fill:#000000;fill-opacity:1;fill-rule:nonzero;stroke:none"
         x="0"
         dx="0 -1.2884983 0 0 0 -0.25209749 0 0 0 0 0 0 0 0 0 0 0 -0.25209749"
         y="0">Valores articulares</tspan></text>
    <path
       id="path112"
       d="m 537.157,89.051 h 132.281 v 83.727 H 537.157 Z"
       style="fill:none;stroke:#000000;stroke-width:0.567249;stroke-linecap:round;stroke-linejoin:round;stroke-miterlimit:4;stroke-dasharray:6.80698, 6.80698;stroke-dashoffset:0;stroke-opacity:1"
       transform="scale(1.3330973,1.3333333)" />
    <text
       id="text112"
       xml:space="preserve"
       transform="matrix(1.3333333,0,0,1.3335688,726.31361,167.52734)"><tspan
         id="tspan112"
         style="font-style:italic;font-variant:normal;font-weight:normal;font-size:12.0046px;font-family:'Times New Roman';writing-mode:lr-tb;fill:#000000;fill-opacity:1;fill-rule:nonzero;stroke:none"
         x="0"
         y="0">q</tspan></text>
    <text
       id="text113"
       xml:space="preserve"
       transform="matrix(1.3333333,0,0,1.3335688,734.31669,170.72914)"><tspan
         id="tspan113"
         style="font-style:italic;font-variant:normal;font-weight:normal;font-size:7.80301px;font-family:'Times New Roman';writing-mode:lr-tb;fill:#000000;fill-opacity:1;fill-rule:nonzero;stroke:none"
         x="0"
         y="0">i</tspan></text>
    <text
       id="text114"
       xml:space="preserve"
       transform="matrix(1.3333333,0,0,1.3335688,744.49208,167.52734)"><tspan
         id="tspan114"
         style="font-variant:normal;font-weight:normal;font-size:12.0046px;font-family:'Times New Roman';writing-mode:lr-tb;fill:#000000;fill-opacity:1;fill-rule:nonzero;stroke:none"
         x="0"
         y="0">(posición articular)</tspan><tspan
         id="tspan115"
         style="font-variant:normal;font-weight:normal;font-size:12.0046px;font-family:'Times New Roman';writing-mode:lr-tb;fill:#000000;fill-opacity:1;fill-rule:nonzero;stroke:none"
         x="0.49237949"
         y="13.741232">(velocidad articular)</tspan><tspan
         id="tspan116"
         style="font-style:italic;font-variant:normal;font-weight:normal;font-size:12.0046px;font-family:'Times New Roman';writing-mode:lr-tb;fill:#000000;fill-opacity:1;fill-rule:nonzero;stroke:none"
         x="-13.633853"
         y="13.953882">q</tspan></text>
    <text
       id="text116"
       xml:space="preserve"
       transform="matrix(1.3333333,0,0,1.3335688,734.31669,189.3376)"><tspan
         id="tspan117"
         style="font-style:italic;font-variant:normal;font-weight:normal;font-size:7.80301px;font-family:'Times New Roman';writing-mode:lr-tb;fill:#000000;fill-opacity:1;fill-rule:nonzero;stroke:none"
         x="0"
         y="0">i</tspan></text>
    <text
       id="text117"
       xml:space="preserve"
       transform="matrix(1.3333333,0,0,1.3335687,731.30449,177.75399)"><tspan
         id="tspan118"
         style="font-variant:normal;font-weight:normal;font-size:2.04522px;font-family:'Cambria Math';writing-mode:lr-tb;fill:#000000;fill-opacity:1;fill-rule:nonzero;stroke:none"
         x="0"
         y="0">•</tspan></text>
    <path
       id="path118"
       d="m 549.027,133.035 c -0.063,0 -0.121,-0.008 -0.172,-0.031 -0.043,-0.031 -0.074,-0.066 -0.094,-0.109 -0.023,-0.051 -0.031,-0.11 -0.031,-0.172 0,-0.051 0.008,-0.098 0.031,-0.141 0.031,-0.051 0.066,-0.086 0.109,-0.109 0.051,-0.032 0.102,-0.047 0.157,-0.047 0.062,0 0.113,0.015 0.156,0.047 0.051,0.023 0.086,0.058 0.109,0.109 0.02,0.043 0.032,0.094 0.032,0.156 0,0.055 -0.016,0.106 -0.047,0.157 -0.024,0.043 -0.059,0.078 -0.11,0.109 -0.043,0.023 -0.09,0.031 -0.14,0.031 z"
       style="fill:none;stroke:#000000;stroke-width:0.483211;stroke-linecap:butt;stroke-linejoin:miter;stroke-miterlimit:4;stroke-dasharray:none;stroke-opacity:1"
       transform="scale(1.3330973,1.3333333)" />
    <text
       id="text118"
       xml:space="preserve"
       transform="matrix(1.3333333,0,0,1.3335688,745.14858,204.46067)"><tspan
         id="tspan119"
         style="font-variant:normal;font-weight:normal;font-size:12.0046px;font-family:'Times New Roman';writing-mode:lr-tb;fill:#000000;fill-opacity:1;fill-rule:nonzero;stroke:none"
         x="0"
         y="0">(aceleración articular)</tspan><tspan
         id="tspan120"
         style="font-style:italic;font-variant:normal;font-weight:normal;font-size:12.0046px;font-family:'Times New Roman';writing-mode:lr-tb;fill:#000000;fill-opacity:1;fill-rule:nonzero;stroke:none"
         x="-14.126232"
         y="-0.7303437">q</tspan></text>
    <text
       id="text120"
       xml:space="preserve"
       transform="matrix(1.3333333,0,0,1.3335688,734.31669,206.68851)"><tspan
         id="tspan121"
         style="font-style:italic;font-variant:normal;font-weight:normal;font-size:7.80301px;font-family:'Times New Roman';writing-mode:lr-tb;fill:#000000;fill-opacity:1;fill-rule:nonzero;stroke:none"
         x="0"
         y="0">i</tspan></text>
    <text
       id="text121"
       xml:space="preserve"
       transform="matrix(1.3333333,0,0,1.3335687,730.07876,194.87209)"><tspan
         id="tspan122"
         style="font-variant:normal;font-weight:normal;font-size:2.04522px;font-family:'Cambria Math';writing-mode:lr-tb;fill:#000000;fill-opacity:1;fill-rule:nonzero;stroke:none"
         x="0"
         y="0">•</tspan></text>
    <path
       id="path122"
       d="m 548.109,145.871 c -0.063,0 -0.122,-0.008 -0.172,-0.031 -0.043,-0.031 -0.075,-0.067 -0.094,-0.11 -0.024,-0.05 -0.031,-0.109 -0.031,-0.171 0,-0.051 0.007,-0.098 0.031,-0.141 0.031,-0.051 0.066,-0.086 0.109,-0.109 0.051,-0.032 0.102,-0.047 0.157,-0.047 0.062,0 0.113,0.015 0.156,0.047 0.051,0.023 0.086,0.058 0.109,0.109 0.02,0.043 0.031,0.094 0.031,0.156 0,0.055 -0.015,0.106 -0.046,0.156 -0.024,0.043 -0.059,0.079 -0.11,0.11 -0.043,0.023 -0.09,0.031 -0.14,0.031 z"
       style="fill:none;stroke:#000000;stroke-width:0.483211;stroke-linecap:butt;stroke-linejoin:miter;stroke-miterlimit:4;stroke-dasharray:none;stroke-opacity:1"
       transform="scale(1.3330973,1.3333333)" />
    <text
       id="text122"
       xml:space="preserve"
       transform="matrix(1.3333333,0,0,1.3335687,732.53023,194.87209)"><tspan
         id="tspan123"
         style="font-variant:normal;font-weight:normal;font-size:2.04522px;font-family:'Cambria Math';writing-mode:lr-tb;fill:#000000;fill-opacity:1;fill-rule:nonzero;stroke:none"
         x="0"
         y="0">•</tspan></text>
    <path
       id="path123"
       d="m 549.949,145.871 c -0.063,0 -0.121,-0.008 -0.172,-0.031 -0.043,-0.031 -0.074,-0.067 -0.094,-0.11 -0.023,-0.05 -0.031,-0.109 -0.031,-0.171 0,-0.051 0.008,-0.098 0.031,-0.141 0.031,-0.051 0.066,-0.086 0.109,-0.109 0.051,-0.032 0.102,-0.047 0.157,-0.047 0.062,0 0.113,0.015 0.156,0.047 0.051,0.023 0.086,0.058 0.109,0.109 0.02,0.043 0.032,0.094 0.032,0.156 0,0.055 -0.016,0.106 -0.047,0.156 -0.024,0.043 -0.059,0.079 -0.11,0.11 -0.043,0.023 -0.09,0.031 -0.14,0.031 z"
       style="fill:none;stroke:#000000;stroke-width:0.483211;stroke-linecap:butt;stroke-linejoin:miter;stroke-miterlimit:4;stroke-dasharray:none;stroke-opacity:1"
       transform="scale(1.3330973,1.3333333)" />
    <path
       id="path124"
       d="m 526.53,162.488 163.24816,0 v 81.47363 l -653.53816,0 v 117.85129 h 38.205425"
       style="fill:none;stroke:#000000;stroke-width:2.836;stroke-linecap:butt;stroke-linejoin:miter;stroke-miterlimit:4;stroke-dasharray:none;stroke-opacity:1;marker-end:url(#Triangle)"
       transform="scale(1.3330973,1.3333333)"
       sodipodi:nodetypes="cccccc" />
    <text
       id="text125"
       xml:space="preserve"
       transform="matrix(1.3333333,0,0,1.3335689,768.81547,146.36168)"><tspan
         id="tspan125"
         style="font-variant:normal;font-weight:normal;font-size:8.00309px;font-family:'Times New Roman';writing-mode:lr-tb;fill:#000000;fill-opacity:1;fill-rule:nonzero;stroke:none"
         x="0"
         y="0">(n articulaciones)</tspan></text>
    <text
       id="text126"
       xml:space="preserve"
       transform="scale(0.9999117,1.0000883)"
       x="292.51285"
       y="464.89124"
       style="font-size:16.0014px;stroke-width:1.33345"><tspan
         id="tspan126"
         style="font-style:italic;font-variant:normal;font-weight:normal;font-size:16.0075px;font-family:'Times New Roman';writing-mode:lr-tb;fill:#000000;fill-opacity:1;fill-rule:nonzero;stroke:none;stroke-width:1.33345"
         x="292.51285"
         y="464.89124">u</tspan><tspan
         id="tspan127"
         style="font-variant:normal;font-weight:normal;font-size:16.0075px;font-family:'Times New Roman';writing-mode:lr-tb;fill:#000000;fill-opacity:1;fill-rule:nonzero;stroke:none;stroke-width:1.33345"
         x="300.51663"
         y="464.89124">:</tspan><tspan
         id="tspan128"
         style="font-variant:normal;font-weight:normal;font-size:16.0075px;font-family:'Times New Roman';writing-mode:lr-tb;fill:#000000;fill-opacity:1;fill-rule:nonzero;stroke:none;stroke-width:1.33345"
         x="311.41406"
         y="455.9014">F (Fuerza lineal)</tspan><tspan
         id="tspan129"
         style="font-variant:normal;font-weight:normal;font-size:16.0075px;font-family:'Times New Roman';writing-mode:lr-tb;fill:#000000;fill-opacity:1;fill-rule:nonzero;stroke:none;stroke-width:1.33345"
         x="311.41406"
         dx="0 0 4.0018969 0 -1.1205311"
         y="471.909">τ (Torque rotacional)</tspan></text>
    <path
       id="path136"
       d="m 743.3686,466.95248 c 0.10933,-0.432 0.516,-2.02667 1.704,-2.02667 0.0827,0 0.51467,0 0.864,0.21334 -0.484,0.10933 -0.812,0.516 -0.812,0.948 0,0.27066 0.192,0.59466 0.65067,0.59466 0.38,0 0.916,-0.29733 0.916,-1 0,-0.89066 -1,-1.136 -1.59334,-1.136 -1,0 -1.59333,0.91734 -1.80666,1.29734 -0.43334,-1.136 -1.35467,-1.29734 -1.86534,-1.29734 -1.78666,0 -2.78666,2.21867 -2.78666,2.65067 0,0.188 0.19333,0.188 0.21866,0.188 0.136,0 0.188,-0.052 0.21467,-0.188 0.59333,-1.83867 1.728,-2.27067 2.32267,-2.27067 0.328,0 0.92133,0.16134 0.92133,1.16134 0,0.54266 -0.296,1.67733 -0.92133,4.10933 -0.26534,1.052 -0.89067,1.78133 -1.64667,1.78133 -0.10933,0 -0.484,0 -0.864,-0.21333 0.432,-0.10933 0.812,-0.464 0.812,-0.948 0,-0.45867 -0.38,-0.59333 -0.624,-0.59333 -0.54267,0 -0.94267,0.432 -0.94267,1 0,0.78133 0.83334,1.13466 1.59334,1.13466 1.16133,0 1.78133,-1.21866 1.80666,-1.296 0.21867,0.62 0.83867,1.296 1.86534,1.296 1.78666,0 2.76,-2.21866 2.76,-2.65066 0,-0.18667 -0.13467,-0.18667 -0.192,-0.18667 -0.16267,0 -0.188,0.0773 -0.24,0.18667 -0.568,1.86533 -1.72934,2.27066 -2.27067,2.27066 -0.67733,0 -0.948,-0.54133 -0.948,-1.13466 0,-0.376 0.0827,-0.756 0.27067,-1.51067 z"
       style="fill:#000000;fill-opacity:1;fill-rule:nonzero;stroke:none;stroke-width:1.33333" />
    <path
       id="path137"
       d="m 661.81127,461.54581 c 0,-0.45866 -0.38,-0.916 -0.896,-0.916 -0.59334,0 -0.94267,0.484 -0.94267,0.916 0,0.45867 0.40667,0.91734 0.91733,0.91734 0.59334,0 0.92134,-0.48534 0.92134,-0.91734 z"
       style="fill:#000000;fill-opacity:1;fill-rule:nonzero;stroke:none;stroke-width:1.33333" />
    <path
       id="path138"
       d="m 661.25927,466.95248 c 0.10933,-0.432 0.51066,-2.02667 1.704,-2.02667 0.0773,0 0.50933,0 0.864,0.21334 -0.48934,0.10933 -0.812,0.516 -0.812,0.948 0,0.27066 0.18666,0.59466 0.65066,0.59466 0.37467,0 0.916,-0.29733 0.916,-1 0,-0.89066 -1,-1.136 -1.59333,-1.136 -1,0 -1.59333,0.92134 -1.812,1.29734 -0.432,-1.136 -1.34933,-1.29734 -1.86533,-1.29734 -1.78134,0 -2.78134,2.21867 -2.78134,2.65067 0,0.188 0.188,0.188 0.21467,0.188 0.13467,0 0.192,-0.052 0.21867,-0.188 0.59333,-1.83867 1.728,-2.27067 2.32266,-2.27067 0.32267,0 0.92134,0.16134 0.92134,1.16134 0,0.54266 -0.296,1.67733 -0.92134,4.10933 -0.27066,1.052 -0.89066,1.78133 -1.64666,1.78133 -0.10934,0 -0.48934,0 -0.864,-0.21333 0.432,-0.10933 0.80666,-0.464 0.80666,-0.948 0,-0.45867 -0.37466,-0.59333 -0.61866,-0.59333 -0.54267,0 -0.948,0.432 -0.948,1 0,0.78133 0.83866,1.13466 1.59333,1.13466 1.16667,0 1.78667,-1.21866 1.812,-1.296 0.21867,0.62 0.83867,1.296 1.86533,1.296 1.78667,0 2.75467,-2.21866 2.75467,-2.65066 0,-0.18667 -0.13467,-0.18667 -0.18667,-0.18667 -0.16266,0 -0.188,0.0773 -0.24533,0.18667 -0.568,1.86533 -1.72933,2.27066 -2.27067,2.27066 -0.672,0 -0.94266,-0.54133 -0.94266,-1.13466 0,-0.38 0.0773,-0.756 0.27066,-1.51067 z"
       style="fill:#000000;fill-opacity:1;fill-rule:nonzero;stroke:none;stroke-width:1.33333" />
    <path
       id="path147"
       d="m 674.11886,468.39515 h 36.81749 v 24.84933 h -36.81749 z"
       style="fill:none;stroke:#000000;stroke-width:2.00094;stroke-linecap:butt;stroke-linejoin:miter;stroke-miterlimit:4;stroke-dasharray:none;stroke-opacity:1" />
    <path
       id="path148"
       d="m 683.46727,485.16581 c -0.192,2.192 -0.67067,2.79734 -1.42134,2.79734 -0.16666,0 -0.58266,-0.0427 -0.85466,-0.292 0.396,-0.0413 0.5,-0.35467 0.5,-0.54134 0,-0.376 -0.29067,-0.568 -0.54134,-0.568 -0.27066,0 -0.56266,0.192 -0.56266,0.588 0,0.62534 0.66666,1.104 1.45866,1.104 1.27067,0 1.90134,-1.16666 2.19334,-2.35866 0.16666,-0.688 0.64533,-4.56267 0.77066,-6.04134 l 0.24934,-3.31866 c 0.188,-2.43734 0.62533,-2.77067 1.22933,-2.77067 0.12533,0 0.54133,0.0213 0.83333,0.27067 -0.37466,0.0627 -0.47866,0.37466 -0.47866,0.56266 0,0.37467 0.29066,0.54134 0.54133,0.54134 0.27067,0 0.56267,-0.16667 0.56267,-0.56267 0,-0.64533 -0.66667,-1.104 -1.48,-1.104 -1.24934,0 -1.77067,1.292 -2,2.292 -0.16534,0.72933 -0.64534,4.484 -0.74934,6.10933 z"
       style="fill:#000000;fill-opacity:1;fill-rule:nonzero;stroke:none;stroke-width:1.33333" />
    <path
       id="path149"
       d="m 697.76993,475.09248 c 0,0 0,-0.14533 -0.16666,-0.14533 -0.208,0 -1.45867,0.12533 -1.688,0.14533 -0.104,0.0213 -0.18667,0.084 -0.18667,0.25067 0,0.16666 0.12533,0.16666 0.312,0.16666 0.64667,0 0.66667,0.0827 0.66667,0.22934 l -0.0413,0.27066 -0.792,3.14534 c -0.24933,-0.5 -0.62533,-0.85467 -1.22933,-0.85467 -1.54133,0 -3.192,1.95867 -3.192,3.90133 0,1.25067 0.72933,2.12534 1.75467,2.12534 0.27066,0 0.93733,-0.0627 1.72933,-1 0.104,0.56266 0.584,1 1.208,1 0.48,0 0.77067,-0.312 1,-0.72934 0.20933,-0.47866 0.396,-1.292 0.396,-1.312 0,-0.14666 -0.12533,-0.14666 -0.16667,-0.14666 -0.12533,0 -0.14533,0.0627 -0.18666,0.25066 -0.22934,0.85334 -0.45867,1.64534 -1,1.64534 -0.376,0 -0.396,-0.35334 -0.396,-0.604 0,-0.33334 0.02,-0.416 0.0627,-0.64534 z m -2.74933,7.50533 c -0.084,0.25067 -0.084,0.27067 -0.272,0.5 -0.58267,0.72934 -1.124,0.93734 -1.5,0.93734 -0.67067,0 -0.85867,-0.72934 -0.85867,-1.24934 0,-0.66666 0.42134,-2.29733 0.73467,-2.92266 0.416,-0.77067 1,-1.27067 1.54133,-1.27067 0.85467,0 1.04134,1.084 1.04134,1.16667 0,0.084 -0.02,0.16666 -0.0413,0.22933 z"
       style="fill:#000000;fill-opacity:1;fill-rule:nonzero;stroke:none;stroke-width:1.33333" />
    <path
       id="path150"
       d="m 700.56193,478.86315 h 1.24934 c 0.27066,0 0.41733,0 0.41733,-0.27067 0,-0.14533 -0.14667,-0.14533 -0.37467,-0.14533 h -1.16666 c 0.47866,-1.896 0.54133,-2.14667 0.54133,-2.22934 0,-0.22933 -0.16667,-0.35466 -0.396,-0.35466 -0.0413,0 -0.41733,0 -0.52133,0.48 l -0.52,2.104 h -1.25067 c -0.27067,0 -0.396,0 -0.396,0.24933 0,0.16667 0.104,0.16667 0.376,0.16667 h 1.16667 c -0.95867,3.776 -1.02134,4.00533 -1.02134,4.23466 0,0.72934 0.5,1.22934 1.22934,1.22934 1.35333,0 2.104,-1.93734 2.104,-2.04134 0,-0.14666 -0.104,-0.14666 -0.14534,-0.14666 -0.12533,0 -0.14666,0.0427 -0.20933,0.188 -0.56267,1.396 -1.27067,1.708 -1.72933,1.708 -0.27067,0 -0.416,-0.16667 -0.416,-0.604 0,-0.33334 0.0413,-0.416 0.0827,-0.64534 z"
       style="fill:#000000;fill-opacity:1;fill-rule:nonzero;stroke:none;stroke-width:1.33333" />
    <text
       id="text150"
       xml:space="preserve"
       transform="scale(0.99991166,1.0000883)"
       x="593.2276"
       y="369.87766"
       style="font-size:16.0014px;stroke-width:1.33345"><tspan
         id="tspan150"
         style="font-variant:normal;font-weight:700;font-size:18.6755px;font-family:'Times New Roman';writing-mode:lr-tb;fill:#000000;fill-opacity:1;fill-rule:nonzero;stroke:none;stroke-width:1.33345"
         x="593.2276"
         dx="0 0 0 0 0 0 0 0 0 0 0 0 0 0 -0.33615968"
         y="369.87766">Dinámica del robot</tspan></text>
    <path
       id="path151"
       d="m 577.84327,423.17648 c 0,-0.45333 -0.376,-0.912 -0.88,-0.912 -0.58933,0 -0.93867,0.484 -0.93867,0.912 0,0.45333 0.40134,0.90533 0.912,0.90533 0.588,0 0.90667,-0.47866 0.90667,-0.90533 z"
       style="fill:#000000;fill-opacity:1;fill-rule:nonzero;stroke:none;stroke-width:1.33333" />
    <path
       id="path152"
       d="m 577.30194,428.52048 c 0.104,-0.428 0.504,-2.00533 1.68133,-2.00533 0.0787,0 0.51067,0 0.85467,0.21866 -0.48,0.104 -0.80267,0.50534 -0.80267,0.932 0,0.26534 0.188,0.588 0.64133,0.588 0.37467,0 0.91067,-0.29066 0.91067,-0.98933 0,-0.88 -0.98933,-1.12 -1.57733,-1.12 -0.98934,0 -1.57867,0.90667 -1.792,1.28133 -0.42667,-1.12533 -1.33334,-1.28133 -1.844,-1.28133 -1.76,0 -2.74934,2.188 -2.74934,2.62 0,0.18267 0.18667,0.18267 0.21334,0.18267 0.13466,0 0.18666,-0.052 0.21333,-0.18267 0.588,-1.81733 1.708,-2.24933 2.29733,-2.24933 0.32267,0 0.91067,0.16133 0.91067,1.15066 0,0.536 -0.296,1.656 -0.91067,4.06267 -0.26666,1.04133 -0.88133,1.76533 -1.63066,1.76533 -0.104,0 -0.47867,0 -0.85467,-0.21333 0.428,-0.10933 0.80267,-0.45333 0.80267,-0.93733 0,-0.45334 -0.37467,-0.58934 -0.61467,-0.58934 -0.536,0 -0.93733,0.428 -0.93733,0.98934 0,0.77733 0.828,1.12533 1.57733,1.12533 1.152,0 1.76667,-1.20267 1.792,-1.28667 0.21333,0.61467 0.828,1.28667 1.844,1.28667 1.76533,0 2.724,-2.192 2.724,-2.62 0,-0.18667 -0.13067,-0.18667 -0.188,-0.18667 -0.156,0 -0.18667,0.0773 -0.23867,0.18667 -0.56266,1.844 -1.70933,2.24533 -2.24533,2.24533 -0.66667,0 -0.932,-0.536 -0.932,-1.12533 0,-0.36933 0.0773,-0.744 0.26533,-1.49467 z"
       style="fill:#000000;fill-opacity:1;fill-rule:nonzero;stroke:none;stroke-width:1.33333" />
    <path
       id="path153"
       d="m 597.78594,428.09248 c 0.27066,0 0.588,0 0.588,-0.31733 0,-0.34934 -0.31734,-0.34934 -0.56267,-0.34934 h -10.208 c -0.24,0 -0.55733,0 -0.55733,0.34934 0,0.31733 0.31733,0.31733 0.55733,0.31733 z m 0.0253,3.31733 c 0.24533,0 0.56267,0 0.56267,-0.348 0,-0.32266 -0.31734,-0.32266 -0.588,-0.32266 h -10.18267 c -0.24,0 -0.55733,0 -0.55733,0.32266 0,0.348 0.31733,0.348 0.55733,0.348 z"
       style="fill:#000000;fill-opacity:1;fill-rule:nonzero;stroke:none;stroke-width:1.33333" />
    <path
       id="path154"
       d="m 607.11394,431.72848 c -0.66667,1.12533 -1.33334,1.364 -2.084,1.416 -0.21334,0.0267 -0.37467,0.0267 -0.37467,0.34933 0,0.104 0.10933,0.188 0.24,0.188 0.45867,0 0.98933,-0.052 1.44267,-0.052 0.588,0 1.17733,0.052 1.71333,0.052 0.104,0 0.31733,0 0.31733,-0.324 0,-0.18666 -0.12933,-0.21333 -0.26533,-0.21333 -0.37467,-0.0253 -0.80133,-0.16133 -0.80133,-0.588 0,-0.21333 0.10933,-0.40133 0.23866,-0.64133 l 1.31334,-2.16667 h 4.276 c 0.0253,0.34933 0.26533,2.67733 0.26533,2.83333 0,0.51067 -0.88,0.56267 -1.22933,0.56267 -0.24,0 -0.40134,0 -0.40134,0.34933 0,0.188 0.188,0.188 0.24,0.188 0.69734,0 1.416,-0.052 2.11467,-0.052 0.42667,0 1.52,0.052 1.948,0.052 0.0827,0 0.296,0 0.296,-0.34933 0,-0.188 -0.16133,-0.188 -0.4,-0.188 -1.04267,0 -1.04267,-0.104 -1.1,-0.61467 l -1.04133,-10.63466 c -0.0253,-0.34934 -0.0253,-0.432 -0.31734,-0.432 -0.27066,0 -0.34933,0.13466 -0.45866,0.296 z m 2.05733,-2.51067 3.344,-5.64133 0.56267,5.64133 z"
       style="fill:#000000;fill-opacity:1;fill-rule:nonzero;stroke:none;stroke-width:1.33333" />
    <path
       id="path155"
       d="m 622.5406,428.52048 c 0.10934,-0.428 0.51067,-2.00533 1.68267,-2.00533 0.0827,0 0.51067,0 0.85867,0.21866 -0.484,0.104 -0.80134,0.50534 -0.80134,0.932 0,0.26534 0.18267,0.588 0.64,0.588 0.376,0 0.90667,-0.29066 0.90667,-0.98933 0,-0.88 -0.98933,-1.12 -1.57867,-1.12 -0.984,0 -1.572,0.90667 -1.78533,1.28133 -0.428,-1.12533 -1.33867,-1.28133 -1.844,-1.28133 -1.76533,0 -2.756,2.188 -2.756,2.62 0,0.18267 0.188,0.18267 0.21467,0.18267 0.13466,0 0.18666,-0.052 0.21333,-0.18267 0.588,-1.81733 1.71333,-2.24933 2.296,-2.24933 0.324,0 0.912,0.16133 0.912,1.15066 0,0.536 -0.29733,1.656 -0.912,4.06267 -0.26533,1.04133 -0.88,1.76533 -1.62933,1.76533 -0.104,0 -0.48,0 -0.85467,-0.21333 0.42667,-0.10933 0.80267,-0.45333 0.80267,-0.93733 0,-0.45334 -0.376,-0.58934 -0.61467,-0.58934 -0.532,0 -0.93333,0.428 -0.93333,0.98934 0,0.77733 0.82933,1.12533 1.57333,1.12533 1.15067,0 1.76533,-1.20267 1.792,-1.28667 0.21333,0.61467 0.828,1.28667 1.844,1.28667 1.76533,0 2.72933,-2.192 2.72933,-2.62 0,-0.18667 -0.136,-0.18667 -0.188,-0.18667 -0.16133,0 -0.188,0.0773 -0.24533,0.18667 -0.55733,1.844 -1.708,2.24533 -2.244,2.24533 -0.66667,0 -0.932,-0.536 -0.932,-1.12533 0,-0.36933 0.0773,-0.744 0.26533,-1.49467 z"
       style="fill:#000000;fill-opacity:1;fill-rule:nonzero;stroke:none;stroke-width:1.33333" />
    <path
       id="path156"
       d="m 637.3486,429.74848 h 4.75467 c 0.24533,0 0.56266,0 0.56266,-0.34267 0,-0.324 -0.31733,-0.324 -0.56266,-0.324 h -4.75467 v -4.78533 c 0,-0.24 0,-0.55733 -0.34933,-0.55733 -0.344,0 -0.344,0.31733 -0.344,0.55733 v 4.78533 h -4.76 c -0.24,0 -0.56267,0 -0.56267,0.324 0,0.34267 0.32267,0.34267 0.56267,0.34267 h 4.76 v 4.78667 c 0,0.24 0,0.56266 0.344,0.56266 0.34933,0 0.34933,-0.32266 0.34933,-0.56266 z"
       style="fill:#000000;fill-opacity:1;fill-rule:nonzero;stroke:none;stroke-width:1.33333" />
    <path
       id="path157"
       d="m 650.13927,432.34315 c -0.16134,0.672 -0.21334,0.80133 -1.552,0.80133 -0.29067,0 -0.45334,0 -0.45334,0.34933 0,0.188 0.16267,0.188 0.45334,0.188 h 6.09466 c 2.70267,0 4.70267,-2.00533 4.70267,-3.688 0,-1.22933 -0.984,-2.21866 -2.64533,-2.40666 1.76533,-0.32267 3.55733,-1.57734 3.55733,-3.208 0,-1.25467 -1.12533,-2.35467 -3.15733,-2.35467 h -5.744 c -0.31734,0 -0.48,0 -0.48,0.34933 0,0.188 0.16266,0.188 0.48,0.188 0.0253,0 0.34933,0 0.64,0.0253 0.29733,0.052 0.45866,0.052 0.45866,0.292 0,0.0573 -0.0307,0.10933 -0.0573,0.32266 z m 2.568,-4.91734 1.068,-4.224 c 0.16133,-0.588 0.188,-0.64 0.90666,-0.64 h 2.21867 c 1.5,0 1.844,1.01467 1.844,1.76534 0,1.49466 -1.46933,3.09866 -3.52667,3.09866 z m -0.74934,5.71867 c -0.24,0 -0.26666,0 -0.376,0 -0.18666,-0.0253 -0.23866,-0.052 -0.23866,-0.18667 0,-0.052 0,-0.0787 0.104,-0.376 l 1.17733,-4.75466 h 3.208 c 1.63067,0 1.97867,1.25466 1.97867,1.97866 0,1.68267 -1.52534,3.33867 -3.55734,3.33867 z"
       style="fill:#000000;fill-opacity:1;fill-rule:nonzero;stroke:none;stroke-width:1.33333" />
    <path
       id="path158"
       d="m 667.14993,432.71781 c 0.188,0.69734 0.80267,1.15067 1.52667,1.15067 0.588,0 0.98933,-0.40133 1.25467,-0.93733 0.292,-0.61467 0.50533,-1.656 0.50533,-1.68267 0,-0.18667 -0.13067,-0.18667 -0.188,-0.18667 -0.18667,0 -0.18667,0.0773 -0.23867,0.32267 -0.24,0.95867 -0.56266,2.10933 -1.28133,2.10933 -0.34933,0 -0.53733,-0.21333 -0.53733,-0.776 0,-0.37466 0.21466,-1.17733 0.34933,-1.792 l 0.48,-1.844 c 0.0573,-0.23866 0.21333,-0.88 0.296,-1.15066 0.0787,-0.40134 0.24,-1.04134 0.24,-1.14534 0,-0.29733 -0.24,-0.45333 -0.47867,-0.45333 -0.084,0 -0.53733,0.0253 -0.672,0.58267 -0.31866,1.26133 -1.068,4.25066 -1.28133,5.136 -0.0267,0.0787 -0.69333,1.44266 -1.95333,1.44266 -0.88,0 -1.04134,-0.776 -1.04134,-1.39066 0,-0.964 0.484,-2.29734 0.91067,-3.47334 0.21333,-0.53733 0.292,-0.776 0.292,-1.1 0,-0.744 -0.532,-1.38533 -1.39067,-1.38533 -1.63066,0 -2.24533,2.48533 -2.24533,2.62 0,0.18267 0.16133,0.18267 0.188,0.18267 0.188,0 0.188,-0.052 0.27067,-0.31734 0.42666,-1.46933 1.09333,-2.11466 1.73466,-2.11466 0.16134,0 0.42667,0.0307 0.42667,0.56133 0,0.40133 -0.18667,0.912 -0.292,1.152 -0.64,1.708 -0.98933,2.75467 -0.98933,3.58267 0,1.63066 1.17733,2.05733 2.084,2.05733 1.12533,0 1.73866,-0.776 2.03066,-1.15067 z"
       style="fill:#000000;fill-opacity:1;fill-rule:nonzero;stroke:none;stroke-width:1.33333" />
    <path
       id="path159"
       d="m 577.81127,393.10848 c 0,-0.45333 -0.36933,-0.90667 -0.87467,-0.90667 -0.588,0 -0.932,0.48 -0.932,0.90667 0,0.45333 0.40134,0.90133 0.90667,0.90133 0.58267,0 0.9,-0.48 0.9,-0.90133 z"
       style="fill:#000000;fill-opacity:1;fill-rule:nonzero;stroke:none;stroke-width:1.33333" />
    <path
       id="path160"
       d="m 577.26994,398.42048 c 0.10933,-0.42133 0.50533,-1.98933 1.67733,-1.98933 0.0773,0 0.5,0 0.84933,0.208 -0.48,0.10933 -0.79733,0.50533 -0.79733,0.93333 0,0.26533 0.18267,0.58267 0.636,0.58267 0.37467,0 0.90533,-0.292 0.90533,-0.984 0,-0.87467 -0.984,-1.11467 -1.568,-1.11467 -0.984,0 -1.56666,0.90667 -1.78133,1.276 -0.42667,-1.11467 -1.328,-1.276 -1.83333,-1.276 -1.75467,0 -2.73867,2.18267 -2.73867,2.604 0,0.188 0.18667,0.188 0.21333,0.188 0.136,0 0.188,-0.052 0.21334,-0.188 0.584,-1.80667 1.69866,-2.22933 2.28666,-2.22933 0.31734,0 0.90134,0.156 0.90134,1.14133 0,0.53067 -0.292,1.64533 -0.90134,4.04133 -0.26533,1.036 -0.88,1.74934 -1.62533,1.74934 -0.104,0 -0.47333,0 -0.84933,-0.208 0.428,-0.10934 0.79733,-0.45334 0.79733,-0.932 0,-0.45334 -0.36933,-0.584 -0.60933,-0.584 -0.53067,0 -0.932,0.42266 -0.932,0.98533 0,0.77067 0.82266,1.11467 1.568,1.11467 1.14533,0 1.75466,-1.19867 1.78133,-1.276 0.21333,0.60933 0.82267,1.276 1.83333,1.276 1.75467,0 2.71334,-2.18267 2.71334,-2.60534 0,-0.18666 -0.136,-0.18666 -0.188,-0.18666 -0.16134,0 -0.18667,0.0773 -0.24,0.18666 -0.55734,1.83334 -1.70267,2.22934 -2.23334,2.22934 -0.66133,0 -0.928,-0.53067 -0.928,-1.11467 0,-0.36933 0.0787,-0.744 0.26667,-1.48933 z"
       style="fill:#000000;fill-opacity:1;fill-rule:nonzero;stroke:none;stroke-width:1.33333" />
    <path
       id="path161"
       d="m 597.63927,397.99915 c 0.26667,0 0.584,0 0.584,-0.32267 0,-0.344 -0.31733,-0.344 -0.55733,-0.344 h -10.15067 c -0.24,0 -0.55733,0 -0.55733,0.344 0,0.32267 0.31733,0.32267 0.55733,0.32267 z m 0.0267,3.292 c 0.24,0 0.55733,0 0.55733,-0.344 0,-0.31734 -0.31733,-0.31734 -0.584,-0.31734 h -10.124 c -0.24,0 -0.55733,0 -0.55733,0.31734 0,0.344 0.31733,0.344 0.55733,0.344 z"
       style="fill:#000000;fill-opacity:1;fill-rule:nonzero;stroke:none;stroke-width:1.33333" />
    <path
       id="path162"
       d="m 610.10327,396.77515 h 1.464 c 0.344,0 0.5,0 0.5,-0.344 0,-0.188 -0.156,-0.188 -0.448,-0.188 h -1.412 l 0.34933,-1.94267 c 0.0787,-0.34267 0.31734,-1.54133 0.42134,-1.74933 0.136,-0.32267 0.428,-0.588 0.79733,-0.588 0.0573,0 0.50533,0 0.828,0.32266 -0.74533,0.052 -0.932,0.66134 -0.932,0.90134 0,0.4 0.31733,0.60933 0.63467,0.60933 0.45333,0 0.93333,-0.396 0.93333,-1.03733 0,-0.77067 -0.772,-1.16667 -1.464,-1.16667 -0.584,0 -1.64533,0.31733 -2.15067,1.99467 -0.104,0.344 -0.16133,0.532 -0.55733,2.656 h -1.172 c -0.344,0 -0.532,0 -0.532,0.31866 0,0.21334 0.16133,0.21334 0.48,0.21334 h 1.12 l -1.25067,6.69733 c -0.31733,1.64667 -0.61466,3.188 -1.48933,3.188 -0.0787,0 -0.47867,0 -0.82267,-0.31733 0.796,-0.052 0.95734,-0.66667 0.95734,-0.90667 0,-0.396 -0.32267,-0.60933 -0.64,-0.60933 -0.45334,0 -0.92667,0.40133 -0.92667,1.036 0,0.74533 0.73867,1.172 1.432,1.172 0.932,0 1.62,-1.01067 1.91067,-1.65067 0.56266,-1.06267 0.93333,-3.10933 0.95866,-3.24 z"
       style="fill:#000000;fill-opacity:1;fill-rule:nonzero;stroke:none;stroke-width:1.33333" />
    <path
       id="path163"
       d="m 619.6086,407.61915 c 0,-0.052 0,-0.0787 -0.292,-0.376 -2.09866,-2.124 -2.656,-5.33734 -2.656,-7.94267 0,-2.952 0.64134,-5.9 2.74,-8 0.208,-0.21333 0.208,-0.23867 0.208,-0.29067 0,-0.136 -0.052,-0.188 -0.156,-0.188 -0.188,0 -1.704,1.16667 -2.71333,3.32267 -0.84933,1.86 -1.06267,3.74533 -1.06267,5.156 0,1.32933 0.18667,3.376 1.12,5.31333 1.036,2.072 2.468,3.192 2.656,3.192 0.104,0 0.156,-0.0573 0.156,-0.18666 z"
       style="fill:#000000;fill-opacity:1;fill-rule:nonzero;stroke:none;stroke-width:1.33333" />
    <path
       id="path164"
       d="m 626.25394,398.42048 c 0.104,-0.42133 0.5,-1.98933 1.672,-1.98933 0.0787,0 0.50533,0 0.84933,0.208 -0.47867,0.10933 -0.79733,0.50533 -0.79733,0.93333 0,0.26533 0.188,0.58267 0.64133,0.58267 0.36933,0 0.90133,-0.292 0.90133,-0.984 0,-0.87467 -0.98533,-1.11467 -1.568,-1.11467 -0.984,0 -1.568,0.90667 -1.78133,1.276 -0.42267,-1.11467 -1.328,-1.276 -1.83333,-1.276 -1.756,0 -2.73467,2.18267 -2.73467,2.604 0,0.188 0.18267,0.188 0.21333,0.188 0.13067,0 0.18267,-0.052 0.208,-0.188 0.58934,-1.80667 1.704,-2.22933 2.28667,-2.22933 0.31867,0 0.90667,0.156 0.90667,1.14133 0,0.53067 -0.29734,1.64533 -0.90667,4.04133 -0.26533,1.036 -0.87467,1.74934 -1.62,1.74934 -0.10933,0 -0.47867,0 -0.848,-0.208 0.42133,-0.10934 0.796,-0.45334 0.796,-0.932 0,-0.45334 -0.37467,-0.584 -0.61467,-0.584 -0.53066,0 -0.92666,0.42266 -0.92666,0.98533 0,0.77067 0.82266,1.11467 1.568,1.11467 1.14,0 1.75466,-1.19867 1.78133,-1.276 0.208,0.60933 0.82267,1.276 1.83333,1.276 1.74934,0 2.708,-2.18267 2.708,-2.60534 0,-0.18666 -0.13066,-0.18666 -0.188,-0.18666 -0.156,0 -0.18133,0.0773 -0.23866,0.18666 -0.55734,1.83334 -1.69867,2.22934 -2.22934,2.22934 -0.66666,0 -0.932,-0.53067 -0.932,-1.11467 0,-0.36933 0.0827,-0.744 0.26534,-1.48933 z"
       style="fill:#000000;fill-opacity:1;fill-rule:nonzero;stroke:none;stroke-width:1.33333" />
    <path
       id="path165"
       d="m 633.7286,403.52448 c 0,-1.11467 -0.42267,-1.78133 -1.08933,-1.78133 -0.55733,0 -0.9,0.428 -0.9,0.90666 0,0.448 0.34267,0.90134 0.9,0.90134 0.188,0 0.428,-0.0787 0.584,-0.21334 0.0573,-0.052 0.0827,-0.052 0.0827,-0.052 0.0267,0 0.0267,0 0.0267,0.23867 0,1.276 -0.584,2.28667 -1.14533,2.844 -0.18267,0.188 -0.18267,0.21333 -0.18267,0.26533 0,0.136 0.0773,0.188 0.156,0.188 0.188,0 1.568,-1.30133 1.568,-3.29733 z"
       style="fill:#000000;fill-opacity:1;fill-rule:nonzero;stroke:none;stroke-width:1.33333" />
    <path
       id="path166"
       d="m 643.73927,402.59248 c 0.18133,0.69333 0.796,1.14667 1.50933,1.14667 0.58933,0 0.98533,-0.40134 1.25067,-0.93334 0.292,-0.60933 0.50533,-1.64533 0.50533,-1.672 0,-0.18666 -0.13067,-0.18666 -0.188,-0.18666 -0.18133,0 -0.18133,0.0773 -0.23867,0.31733 -0.23466,0.95867 -0.55733,2.09867 -1.272,2.09867 -0.348,0 -0.53066,-0.208 -0.53066,-0.77067 0,-0.36933 0.208,-1.16667 0.344,-1.776 l 0.47866,-1.83867 c 0.052,-0.23466 0.21334,-0.87466 0.292,-1.14 0.0787,-0.396 0.24,-1.03733 0.24,-1.14133 0,-0.29067 -0.24,-0.45333 -0.48,-0.45333 -0.0773,0 -0.53066,0.0267 -0.66666,0.584 -0.31734,1.24933 -1.06267,4.224 -1.276,5.104 -0.0253,0.0787 -0.68667,1.432 -1.93734,1.432 -0.87466,0 -1.036,-0.77067 -1.036,-1.38 0,-0.95867 0.47867,-2.28667 0.90534,-3.45334 0.20933,-0.53066 0.292,-0.77066 0.292,-1.088 0,-0.74533 -0.53067,-1.38533 -1.38534,-1.38533 -1.62,0 -2.22933,2.47333 -2.22933,2.604 0,0.188 0.156,0.188 0.18267,0.188 0.188,0 0.188,-0.052 0.27066,-0.31867 0.42134,-1.46266 1.088,-2.09866 1.724,-2.09866 0.16134,0 0.42667,0.0267 0.42667,0.55733 0,0.396 -0.18667,0.90133 -0.29067,1.14133 -0.64133,1.70267 -0.98533,2.73867 -0.98533,3.56134 0,1.62 1.16667,2.048 2.07333,2.048 1.11467,0 1.724,-0.772 2.02134,-1.14667 z"
       style="fill:#000000;fill-opacity:1;fill-rule:nonzero;stroke:none;stroke-width:1.33333" />
    <path
       id="path167"
       d="m 652.39527,399.30048 c 0,-1.30133 -0.188,-3.348 -1.12,-5.29067 -1.00534,-2.07333 -2.46934,-3.188 -2.63067,-3.188 -0.104,0 -0.18133,0.0787 -0.18133,0.188 0,0.052 0,0.0773 0.31733,0.396 1.672,1.676 2.63067,4.35867 2.63067,7.89467 0,2.92267 -0.61067,5.90133 -2.70934,8.02667 -0.23866,0.21333 -0.23866,0.24 -0.23866,0.292 0,0.104 0.0773,0.18666 0.18133,0.18666 0.16133,0 1.704,-1.172 2.688,-3.32266 0.87467,-1.85867 1.06267,-3.74934 1.06267,-5.18267 z"
       style="fill:#000000;fill-opacity:1;fill-rule:nonzero;stroke:none;stroke-width:1.33333" />
    <path
       id="path168"
       d="M 571.03978,414.72315 H 768.94607"
       style="fill:none;stroke:#000000;stroke-width:0.756265;stroke-linecap:round;stroke-linejoin:round;stroke-miterlimit:4;stroke-dasharray:9.07517, 9.07517;stroke-dashoffset:0;stroke-opacity:1" />
    <text
       id="text168"
       xml:space="preserve"
       transform="scale(0.9999117,1.0000883)"
       x="695.35718"
       y="404.11981"
       style="font-size:16.0014px;stroke-width:1.33345"><tspan
         id="tspan168"
         style="font-variant:normal;font-weight:normal;font-size:16.0075px;font-family:'Times New Roman';writing-mode:lr-tb;fill:#000000;fill-opacity:1;fill-rule:nonzero;stroke:none;stroke-width:1.33345"
         x="695.35718"
         y="404.11981">(No lineal)</tspan><tspan
         id="tspan169"
         style="font-variant:normal;font-weight:normal;font-size:16.0075px;font-family:'Times New Roman';writing-mode:lr-tb;fill:#000000;fill-opacity:1;fill-rule:nonzero;stroke:none;stroke-width:1.33345"
         x="678.92755"
         y="434.6297">(Linealizado)</tspan></text>
    <path
       id="path169"
       d="M 541.97826,340.76448 H 783.6608 V 568.45781 H 541.97826 Z"
       style="fill:none;stroke:#000000;stroke-width:2.00096;stroke-linecap:butt;stroke-linejoin:miter;stroke-miterlimit:4;stroke-dasharray:8.00381, 8.00381;stroke-dashoffset:0;stroke-opacity:1" />
    <path
       id="path170"
       d="m 389.07733,427.87915 h 103.3537 v 25.792"
       style="fill:none;stroke:#000000;stroke-width:3.78132;stroke-linecap:butt;stroke-linejoin:miter;stroke-miterlimit:4;stroke-dasharray:none;stroke-opacity:1" />
    <path
       id="path171"
       d="m 492.43103,459.12448 -4.72449,-8.17733 h 9.44899 z"
       style="fill:#000000;fill-opacity:1;fill-rule:evenodd;stroke:#000000;stroke-width:1.26044;stroke-linecap:butt;stroke-linejoin:miter;stroke-miterlimit:4;stroke-dasharray:none;stroke-opacity:1" />
    <text
       id="text171"
       xml:space="preserve"
       transform="scale(0.9999117,1.0000883)"
       x="388.37469"
       y="420.99805"
       style="font-size:16.0014px;stroke-width:1.33345"><tspan
         id="tspan171"
         style="font-style:italic;font-variant:normal;font-weight:normal;font-size:16.0075px;font-family:'Times New Roman';writing-mode:lr-tb;fill:#000000;fill-opacity:1;fill-rule:nonzero;stroke:none;stroke-width:1.33345"
         x="388.37469"
         y="420.99805">u</tspan></text>
    <text
       id="text172"
       xml:space="preserve"
       transform="scale(0.9999117,1.0000883)"
       x="396.37851"
       y="424.19955"
       style="font-size:16.0014px;stroke-width:1.33345"><tspan
         id="tspan172"
         style="font-style:italic;font-variant:normal;font-weight:normal;font-size:10.4049px;font-family:'Times New Roman';writing-mode:lr-tb;fill:#000000;fill-opacity:1;fill-rule:nonzero;stroke:none;stroke-width:1.33345"
         x="396.37851"
         y="424.19955">d</tspan></text>
    <text
       id="text173"
       xml:space="preserve"
       transform="scale(0.9999117,1.0000883)"
       x="405.58292"
       y="420.99805"
       style="font-size:16.0014px;stroke-width:1.33345"><tspan
         id="tspan173"
         style="font-variant:normal;font-weight:normal;font-size:16.0075px;font-family:'Times New Roman';writing-mode:lr-tb;fill:#000000;fill-opacity:1;fill-rule:nonzero;stroke:none;stroke-width:1.33345"
         x="405.58292"
         y="420.99805">(perturbación)</tspan></text>
    <path
       id="path173"
       d="m 512.70744,480.94181 c 0,11.052 -8.95308,20.01067 -20.00579,20.01067 -11.05137,0 -20.00979,-8.95867 -20.00979,-20.01067 0,-11.052 8.95842,-20.016 20.00979,-20.016 11.05271,0 20.00579,8.964 20.00579,20.016 z"
       style="fill:#ffffff;fill-opacity:1;fill-rule:nonzero;stroke:#000000;stroke-width:2.00094;stroke-linecap:butt;stroke-linejoin:miter;stroke-miterlimit:4;stroke-dasharray:none;stroke-opacity:1" />
    <path
       id="path174"
       d="m 478.69613,466.93115 28.01104,28.016"
       style="fill:#ffffff;fill-opacity:1;fill-rule:nonzero;stroke:#000000;stroke-width:2.00094;stroke-linecap:butt;stroke-linejoin:miter;stroke-miterlimit:4;stroke-dasharray:none;stroke-opacity:1" />
    <path
       id="path175"
       d="m 478.69613,494.94715 28.01104,-28.016"
       style="fill:#ffffff;fill-opacity:1;fill-rule:nonzero;stroke:#000000;stroke-width:2.00094;stroke-linecap:butt;stroke-linejoin:miter;stroke-miterlimit:4;stroke-dasharray:none;stroke-opacity:1" />
    <text
       id="text175"
       xml:space="preserve"
       transform="scale(0.9999117,1.0000883)"
       x="474.73523"
       y="485.47351"
       style="font-size:16.0014px;stroke-width:1.33345"><tspan
         id="tspan175"
         style="font-variant:normal;font-weight:normal;font-size:16.0075px;font-family:'Cambria Math';writing-mode:lr-tb;fill:#000000;fill-opacity:1;fill-rule:nonzero;stroke:none;stroke-width:1.33345"
         x="474.73523"
         y="485.47351">+</tspan><tspan
         id="tspan176"
         style="font-variant:normal;font-weight:normal;font-size:16.0075px;font-family:'Cambria Math';writing-mode:lr-tb;fill:#000000;fill-opacity:1;fill-rule:nonzero;stroke:none;stroke-width:1.33345"
         x="486.69962"
         y="473.9642">+</tspan></text>
    <path
       id="path176"
       d="m 512.99806,480.84848 h 40.39151"
       style="fill:none;stroke:#000000;stroke-width:3.78132;stroke-linecap:butt;stroke-linejoin:miter;stroke-miterlimit:4;stroke-dasharray:none;stroke-opacity:1" />
    <path
       id="path177"
       d="m 558.84194,480.84848 -8.17722,4.728 v -9.452 z"
       style="fill:#000000;fill-opacity:1;fill-rule:evenodd;stroke:#000000;stroke-width:1.26044;stroke-linecap:butt;stroke-linejoin:miter;stroke-miterlimit:4;stroke-dasharray:none;stroke-opacity:1" />
    <path
       id="path183"
       d="m 109.64461,533.13381 c 0.10934,-0.432 0.51067,-2.02533 1.704,-2.02533 0.0773,0 0.50934,0 0.864,0.21866 -0.48933,0.104 -0.812,0.51067 -0.812,0.94267 0,0.27067 0.18667,0.59333 0.65067,0.59333 0.37467,0 0.91733,-0.296 0.91733,-1 0,-0.89066 -1,-1.12933 -1.59466,-1.12933 -1,0 -1.59334,0.916 -1.812,1.296 -0.432,-1.13467 -1.34934,-1.296 -1.86534,-1.296 -1.78133,0 -2.78133,2.21333 -2.78133,2.64533 0,0.188 0.188,0.188 0.21467,0.188 0.13466,0 0.192,-0.052 0.21866,-0.188 0.59334,-1.83866 1.72934,-2.27066 2.32267,-2.27066 0.32267,0 0.916,0.16133 0.916,1.16133 0,0.54133 -0.296,1.67733 -0.916,4.10933 -0.27067,1.052 -0.89067,1.78667 -1.64667,1.78667 -0.10933,0 -0.48933,0 -0.864,-0.21867 0.432,-0.10933 0.808,-0.45866 0.808,-0.948 0,-0.45866 -0.376,-0.59333 -0.62,-0.59333 -0.54266,0 -0.948,0.432 -0.948,1 0,0.78533 0.83867,1.13467 1.59334,1.13467 1.16133,0 1.78666,-1.21334 1.812,-1.29734 0.21866,0.62 0.83866,1.29734 1.86533,1.29734 1.78133,0 2.75467,-2.21334 2.75467,-2.64534 0,-0.19333 -0.13467,-0.19333 -0.18667,-0.19333 -0.16133,0 -0.188,0.084 -0.24533,0.19333 -0.568,1.864 -1.72934,2.27067 -2.27067,2.27067 -0.672,0 -0.94267,-0.54133 -0.94267,-1.136 0,-0.38 0.0773,-0.76 0.27067,-1.51467 z"
       style="fill:#000000;fill-opacity:1;fill-rule:nonzero;stroke:none;stroke-width:1.33333" />
    <path
       id="path184"
       d="m 105.88481,530.20714 3.45272,-2.45333 3.44739,2.45333"
       style="fill:none;stroke:#000000;stroke-width:0.756265;stroke-linecap:round;stroke-linejoin:round;stroke-miterlimit:4;stroke-dasharray:8.00381, 8.00381;stroke-dashoffset:0;stroke-opacity:1" />
    <path
       id="path198"
       d="m 82.420615,468.87381 c 0.104,-0.416 0.494667,-1.964 1.646667,-1.964 0.08267,0 0.5,0 0.838667,0.21467 -0.469334,0.104 -0.786667,0.49467 -0.786667,0.916 0,0.26 0.186667,0.57333 0.629333,0.57333 0.365334,0 0.890667,-0.28666 0.890667,-0.96933 0,-0.864 -0.968,-1.09867 -1.546667,-1.09867 -0.968,0 -1.541333,0.89067 -1.749333,1.25467 -0.422667,-1.09867 -1.313333,-1.25467 -1.808,-1.25467 -1.729333,0 -2.697333,2.14534 -2.697333,2.568 0,0.18267 0.182667,0.18267 0.208,0.18267 0.136,0 0.188,-0.0533 0.213333,-0.18267 0.573334,-1.78133 1.672,-2.204 2.250667,-2.204 0.312,0 0.890666,0.16267 0.890666,1.13067 0,0.52133 -0.292,1.62 -0.890666,3.97867 -0.261334,1.02133 -0.865334,1.72933 -1.598667,1.72933 -0.105333,0 -0.469333,0 -0.838666,-0.21333 0.421333,-0.104 0.785333,-0.44267 0.785333,-0.916 0,-0.44267 -0.364,-0.57334 -0.598667,-0.57334 -0.525333,0 -0.916,0.41734 -0.916,0.96934 0,0.76 0.806667,1.09866 1.541334,1.09866 1.125333,0 1.729333,-1.17733 1.754666,-1.256 0.209333,0.6 0.813333,1.256 1.808,1.256 1.729333,0 2.666667,-2.14666 2.666667,-2.568 0,-0.18266 -0.130667,-0.18266 -0.182667,-0.18266 -0.156,0 -0.182667,0.0787 -0.234667,0.18266 -0.546666,1.80667 -1.676,2.20267 -2.197333,2.20267 -0.656,0 -0.917333,-0.52533 -0.917333,-1.104 0,-0.364 0.07867,-0.72933 0.261333,-1.46267 z"
       style="fill:#000000;fill-opacity:1;fill-rule:nonzero;stroke:none;stroke-width:1.33333" />
    <path
       id="path199"
       d="m 93.061948,468.68181 c 0,-0.0267 0.02533,-0.18266 0.02533,-0.18266 0,-0.0787 -0.02533,-0.18267 -0.186667,-0.18267 -0.234667,0 -1.204,0.104 -1.489333,0.13067 -0.07867,0 -0.261333,0.0253 -0.261333,0.26 0,0.16133 0.182666,0.16133 0.313333,0.16133 0.552,0 0.552,0.104 0.552,0.18267 0,0.0787 0,0.156 -0.032,0.26 l -0.677333,2.672 c -0.233334,-0.396 -0.629334,-0.708 -1.202667,-0.708 -1.494667,0 -3.010667,1.65066 -3.010667,3.32266 0,1.156 0.756,1.94267 1.776,1.94267 0.630667,0 1.182667,-0.344 1.652,-0.812 0.208,0.70267 0.890667,0.812 1.202667,0.812 0.421333,0 0.708,-0.24 0.916,-0.604 0.261333,-0.47333 0.422666,-1.12533 0.422666,-1.17733 0,-0.16134 -0.161333,-0.16134 -0.188,-0.16134 -0.182666,0 -0.182666,0.0573 -0.259999,0.36934 -0.156,0.57333 -0.365334,1.256 -0.865334,1.256 -0.285333,0 -0.390666,-0.26 -0.390666,-0.57334 0,-0.21333 0.02667,-0.31733 0.07867,-0.47333 z m -2.489333,6.28534 c -0.07867,0.33866 -0.338666,0.57333 -0.604,0.78666 -0.105333,0.104 -0.573333,0.46934 -1.073333,0.46934 -0.442667,0 -0.86,-0.31334 -0.86,-1.12534 0,-0.63066 0.338667,-1.91066 0.625333,-2.38 0.526667,-0.94266 1.125334,-1.104 1.442667,-1.104 0.808,0 1.046667,0.89067 1.046667,1.02 0,0.0267 -0.02533,0.136 -0.02533,0.16267 z"
       style="fill:#000000;fill-opacity:1;fill-rule:nonzero;stroke:none;stroke-width:1.33333" />
  </g>
</svg>
